<!-- Simple stylized eagle artwork (responsive) -->
<svg xmlns="http://www.w3.org/2000/svg" viewBox="0 0 800 400" preserveAspectRatio="xMidYMid meet">
  <defs>
    <linearGradient id="g1" x1="0" x2="1" y1="0" y2="1">
      <stop offset="0" stop-color="#7A4B2A"/>
      <stop offset="1" stop-color="#5a3723"/>
    </linearGradient>
  </defs>
  <rect width="100%" height="100%" fill="none"/>
  <g transform="translate(100,40) scale(0.9)">
    <path d="M140 140 C 80 90, 40 40, 80 20 C 140 0, 240 20, 300 60 C 360 100, 420 120, 500 80 C 540 60, 560 40, 580 20 L540 80 C 500 120, 420 140, 360 160 C 300 180, 220 180, 140 140 Z" fill="url(#g1)" opacity="0.95"/>
    <path d="M240 120 L300 28 L350 116 L320 136 L300 90 L280 136 Z" fill="#7A4B2A"/>
    <circle cx="420" cy="260" r="90" fill="#7A4B2A" opacity="0.12"/>
  </g>
</svg>